<svg width="350" height="60" viewBox="0 0 350 60" fill="none" xmlns="http://www.w3.org/2000/svg">
<path d="M72.976 20.8H76.694V35.75H83.948V39H72.976V20.8ZM90.2896 39V35.854H99.4676V39H90.2896ZM90.2896 23.946V20.8H99.4676V23.946H90.2896ZM90.2896 30.888V27.794H98.9476V30.888H90.2896ZM87.8976 20.8H91.4856V39H87.8976V20.8ZM107.474 34.866L107.916 31.928H116.652L117.094 34.866H107.474ZM112.232 26.702L109.502 32.968L109.58 33.8L107.188 39H103.002L112.232 19.734L121.462 39H117.25L114.91 33.956L114.962 33.02L112.232 26.702ZM138.204 20.8H141.792V39.91L128.844 27.716V39H125.256V19.89L138.204 32.084V20.8ZM147.567 20.8H151.363V39H147.567V20.8ZM153.755 39H149.959V35.62H153.625C154.422 35.62 155.176 35.516 155.887 35.308C156.597 35.0827 157.221 34.736 157.759 34.268C158.296 33.8 158.712 33.2107 159.007 32.5C159.319 31.772 159.475 30.9053 159.475 29.9C159.475 28.8947 159.319 28.0367 159.007 27.326C158.712 26.598 158.296 26 157.759 25.532C157.221 25.064 156.597 24.726 155.887 24.518C155.176 24.2927 154.422 24.18 153.625 24.18H149.959V20.8H153.755C155.661 20.8 157.325 21.1727 158.747 21.918C160.185 22.6633 161.303 23.7207 162.101 25.09C162.898 26.442 163.297 28.0453 163.297 29.9C163.297 31.7547 162.898 33.3667 162.101 34.736C161.303 36.088 160.185 37.1367 158.747 37.882C157.325 38.6273 155.661 39 153.755 39ZM172.132 30.524H176.058L181.986 39H177.592L172.132 30.524ZM167.998 20.8H171.716V39H167.998V20.8ZM170.26 23.972V20.8H174.108C175.547 20.8 176.769 21.0427 177.774 21.528C178.779 22.0133 179.551 22.6893 180.088 23.556C180.625 24.4227 180.894 25.4367 180.894 26.598C180.894 27.742 180.625 28.756 180.088 29.64C179.551 30.5067 178.779 31.1827 177.774 31.668C176.769 32.1533 175.547 32.396 174.108 32.396H170.26V29.432H173.874C174.533 29.432 175.096 29.328 175.564 29.12C176.049 28.8947 176.422 28.5827 176.682 28.184C176.942 27.768 177.072 27.274 177.072 26.702C177.072 26.13 176.942 25.6447 176.682 25.246C176.422 24.83 176.049 24.518 175.564 24.31C175.096 24.0847 174.533 23.972 173.874 23.972H170.26ZM188.827 29.9C188.827 31.0613 189.07 32.0927 189.555 32.994C190.04 33.8953 190.708 34.606 191.557 35.126C192.406 35.646 193.394 35.906 194.521 35.906C195.648 35.906 196.636 35.646 197.485 35.126C198.334 34.606 198.993 33.8953 199.461 32.994C199.946 32.0927 200.189 31.0613 200.189 29.9C200.189 28.7387 199.955 27.7073 199.487 26.806C199.019 25.9047 198.36 25.194 197.511 24.674C196.662 24.154 195.665 23.894 194.521 23.894C193.394 23.894 192.406 24.154 191.557 24.674C190.708 25.194 190.04 25.9047 189.555 26.806C189.07 27.7073 188.827 28.7387 188.827 29.9ZM184.901 29.9C184.901 28.5133 185.144 27.248 185.629 26.104C186.114 24.9427 186.79 23.9373 187.657 23.088C188.524 22.2387 189.538 21.5887 190.699 21.138C191.878 20.67 193.152 20.436 194.521 20.436C195.908 20.436 197.182 20.67 198.343 21.138C199.504 21.5887 200.518 22.2387 201.385 23.088C202.269 23.9373 202.945 24.9427 203.413 26.104C203.898 27.248 204.141 28.5133 204.141 29.9C204.141 31.2693 203.898 32.5433 203.413 33.722C202.945 34.8833 202.278 35.8973 201.411 36.764C200.562 37.6307 199.548 38.3067 198.369 38.792C197.208 39.26 195.925 39.494 194.521 39.494C193.117 39.494 191.826 39.26 190.647 38.792C189.486 38.3067 188.472 37.6307 187.605 36.764C186.738 35.8973 186.071 34.8833 185.603 33.722C185.135 32.5433 184.901 31.2693 184.901 29.9ZM218.45 20.8H222.168V39H218.45V20.8ZM220.712 23.946V20.8H224.326C225.765 20.8 226.987 21.034 227.992 21.502C229.015 21.97 229.795 22.6373 230.332 23.504C230.869 24.3707 231.138 25.402 231.138 26.598C231.138 27.7767 230.869 28.808 230.332 29.692C229.795 30.5587 229.015 31.226 227.992 31.694C226.987 32.162 225.765 32.396 224.326 32.396H220.712V29.25H224.326C225.314 29.25 226.094 29.0247 226.666 28.574C227.238 28.1233 227.524 27.4647 227.524 26.598C227.524 25.714 227.238 25.0553 226.666 24.622C226.094 24.1713 225.314 23.946 224.326 23.946H220.712ZM238.227 39V35.854H247.405V39H238.227ZM238.227 23.946V20.8H247.405V23.946H238.227ZM238.227 30.888V27.794H246.885V30.888H238.227ZM235.835 20.8H239.423V39H235.835V20.8ZM257.023 30.524H260.949L266.877 39H262.483L257.023 30.524ZM252.889 20.8H256.607V39H252.889V20.8ZM255.151 23.972V20.8H258.999C260.438 20.8 261.66 21.0427 262.665 21.528C263.67 22.0133 264.442 22.6893 264.979 23.556C265.516 24.4227 265.785 25.4367 265.785 26.598C265.785 27.742 265.516 28.756 264.979 29.64C264.442 30.5067 263.67 31.1827 262.665 31.668C261.66 32.1533 260.438 32.396 258.999 32.396H255.151V29.432H258.765C259.424 29.432 259.987 29.328 260.455 29.12C260.94 28.8947 261.313 28.5827 261.573 28.184C261.833 27.768 261.963 27.274 261.963 26.702C261.963 26.13 261.833 25.6447 261.573 25.246C261.313 24.83 260.94 24.518 260.455 24.31C259.987 24.0847 259.424 23.972 258.765 23.972H255.151ZM273.224 39V35.854H282.402V39H273.224ZM273.224 23.946V20.8H282.402V23.946H273.224ZM273.224 30.888V27.794H281.882V30.888H273.224ZM270.832 20.8H274.42V39H270.832V20.8ZM287.886 20.8H291.656V39H287.886V20.8ZM301.534 30.524H305.46L311.388 39H306.994L301.534 30.524ZM297.4 20.8H301.118V39H297.4V20.8ZM299.662 23.972V20.8H303.51C304.948 20.8 306.17 21.0427 307.176 21.528C308.181 22.0133 308.952 22.6893 309.49 23.556C310.027 24.4227 310.296 25.4367 310.296 26.598C310.296 27.742 310.027 28.756 309.49 29.64C308.952 30.5067 308.181 31.1827 307.176 31.668C306.17 32.1533 304.948 32.396 303.51 32.396H299.662V29.432H303.276C303.934 29.432 304.498 29.328 304.966 29.12C305.451 28.8947 305.824 28.5827 306.084 28.184C306.344 27.768 306.474 27.274 306.474 26.702C306.474 26.13 306.344 25.6447 306.084 25.246C305.824 24.83 305.451 24.518 304.966 24.31C304.498 24.0847 303.934 23.972 303.276 23.972H299.662ZM317.865 34.866L318.307 31.928H327.043L327.485 34.866H317.865ZM322.623 26.702L319.893 32.968L319.971 33.8L317.579 39H313.393L322.623 19.734L331.853 39H327.641L325.301 33.956L325.353 33.02L322.623 26.702Z" fill="#D6D6D6"/>
<path d="M60 30C60 46.5685 46.5685 60 30 60C13.4314 60 0 46.5685 0 30C0 13.4314 13.4314 0 30 0C46.5685 0 60 13.4314 60 30ZM3.71851 30C3.71851 44.515 15.4851 56.2815 30 56.2815C44.515 56.2815 56.2815 44.515 56.2815 30C56.2815 15.4851 44.515 3.71851 30 3.71851C15.4851 3.71851 3.71851 15.4851 3.71851 30Z" fill="#2E9CF4"/>
<path d="M30.0775 57.7985C45.5022 57.7985 58.0065 45.2942 58.0065 29.8695C58.0065 14.4447 45.5022 1.94043 30.0775 1.94043C14.6527 1.94043 2.14844 14.4447 2.14844 29.8695C2.14844 45.2942 14.6527 57.7985 30.0775 57.7985Z" fill="url(#paint0_linear_24_6)"/>
<path d="M26.1965 18.6978H31.5196L17.4713 35.4548H31.5196L27.091 40.2674H7.73438L26.1965 18.6978Z" fill="white"/>
<path d="M35.0246 18.6978L23.0146 33.0553H28.3084L40.3769 18.6978H35.0246Z" fill="white"/>
<path d="M40.3767 21.8839L43.1776 18.6978H52.6653L44.7612 28.3094H35.0244L37.7226 25.0966H43.8082L46.6091 21.8839H40.3767Z" fill="white"/>
<defs>
<linearGradient id="paint0_linear_24_6" x1="21.9136" y1="65.5327" x2="-0.429627" y2="39.752" gradientUnits="userSpaceOnUse">
<stop stop-color="#06213F"/>
<stop offset="1" stop-color="#2855A3"/>
</linearGradient>
</defs>
</svg>
